<svg width="48" height="47" viewBox="0 0 48 47" fill="none" xmlns="http://www.w3.org/2000/svg">
<path fill-rule="evenodd" clip-rule="evenodd" d="M12.2296 8.75529V16.5107L11.9867 16.6128C11.853 16.669 9.32644 17.5088 6.37186 18.479L1 20.243V33.1215V46H11.9057H22.8114L22.8115 35.4006L22.8116 24.8012L23.8414 24.0643C24.4078 23.659 24.9422 23.2999 25.029 23.2665C25.1669 23.2134 25.1869 24.636 25.1869 34.4944V45.7831H36.0934H47L46.9721 39.4731L46.9443 33.1631L41.3572 31.3194L35.7701 29.4758L35.7424 21.6835L35.7147 13.8913L33.3932 15.5587C31.4336 16.9661 28.5213 19.046 22.4605 23.3664L21.4077 24.1169V34.3536V44.5904H11.9057H2.4037V32.9026V21.2149L4.48226 20.5399C5.62542 20.1686 9.0389 19.0383 12.0676 18.0281C15.0963 17.0179 17.6114 16.2287 17.6568 16.2742C17.7021 16.3197 17.7264 21.7214 17.7109 28.2779L17.6825 40.1988L15.6579 40.2283L13.6333 40.2578V29.7915C13.6333 22.2746 13.6 19.3253 13.515 19.3253C13.4499 19.3253 13.134 19.402 12.8131 19.4957L12.2296 19.666V30.6071V41.548L15.5235 41.5783C17.3351 41.5949 18.8657 41.5922 18.9248 41.5723C19.0635 41.5256 19.0741 14.3373 18.9353 14.3373C18.8821 14.3373 17.74 14.7033 16.3974 15.1506C15.0547 15.5979 13.8836 15.9639 13.7948 15.9639C13.6534 15.9639 13.6333 15.2023 13.6333 9.83735C13.6333 6.46777 13.6697 3.71236 13.7143 3.71421C13.7589 3.71605 14.218 4.02107 14.7347 4.39192C15.2514 4.76276 17.0735 6.06212 18.7838 7.27929C20.4942 8.49646 22.1365 9.67242 22.4335 9.89265C22.7304 10.1128 23.4715 10.644 24.0801 11.0731L25.1869 11.8531V15.6434C25.1869 17.7281 25.2077 19.4337 25.2332 19.4337C25.2587 19.4337 25.5745 19.2369 25.9351 18.9965L26.5906 18.5592V14.8334C26.5906 11.9533 26.5599 11.0955 26.4556 11.0544C26.3814 11.0252 25.2408 10.2271 23.9209 9.28076C22.601 8.33446 20.123 6.56439 18.414 5.34722C16.7052 4.13005 15.064 2.95419 14.7671 2.73407C13.8627 2.06384 12.3384 1 12.2824 1C12.2534 1 12.2296 4.48994 12.2296 8.75529ZM32.0778 18.1673C30.9088 19.0129 29.1961 20.2403 28.2716 20.8948L26.5906 22.0848V33.2291V44.3735H36.0937H45.5967L45.5687 39.2564L45.5406 34.1394L43.6037 33.5083C42.5385 33.1613 39.1741 32.0483 36.1276 31.0351C33.081 30.0217 30.5144 29.1928 30.424 29.1928C30.2789 29.1928 30.2631 29.8308 30.2878 34.6958L30.3158 40.1988L32.3404 40.2283L34.3649 40.2578V36.0148V31.7717L34.6619 31.8437C34.8253 31.8832 35.1411 31.9636 35.3637 32.0222L35.7686 32.1288V36.8416V41.5542H32.3674H28.9661V34.3976C28.9661 30.4614 28.9897 27.241 29.0187 27.241C29.0476 27.241 30.2503 27.6312 31.6911 28.1082C33.1321 28.5852 34.323 28.9756 34.338 28.9757C34.3529 28.9758 34.3649 26.1946 34.3649 22.7952C34.3649 19.3958 34.3286 16.6179 34.284 16.6222C34.2394 16.6264 33.2466 17.3218 32.0778 18.1673Z" fill="white" stroke="white"/>
</svg>
